# xmcd
#
# Track frame offsets:
#	150
#	11633
#	23383
#	33812
#	47168
#	58252
#	68331
#	81574
#	91486
#	103494
#	115587
#	128015
#	139412
#	149414
#
# Disc length: 2140 seconds
#
# Revision: 0
# Processed by: cddbd v1.5.2PL0 Copyright (c) Steve Scherf et al.
# Submitted via: audiograbber 1.83.01
#
DISCID=bf085a0e
DTITLE=Dolly Parton and Friends - Gold
DYEAR=1993
DGENRE=Country
TTITLE0=Dolly Parton - Makin' Believe
TTITLE1=Sandy Posey - Single Girl
TTITLE2=Dolly Parton - Release Me
TTITLE3=Donna Fargo - Daddy
TTITLE4=Dolly Parton - Honky Tonk Angels
TTITLE5=Sandy Posey - What A Woman Won't Do
TTITLE6=Dolly Parton - Little Blossom
TTITLE7=Donna Fargo - Sticks And Stones
TTITLE8=Dolly Parton - Letter To Heaven
TTITLE9=Sandy Posey - Bring Him Safely Home To Me
TTITLE10=Dolly Parton - Two Little Orphans
TTITLE11=Donna Fargo - Wishfull Thinking
TTITLE12=Dolly Parton - Girl Left Alone
TTITLE13=Sandy Posey - I Will Follow Him
EXTD=Gold 094\n
EXTT0=(Work]\n
EXTT1=(Sharp]\n
EXTT2=(Miller/Stevenson]\n
EXTT3=(Fargo]\n
EXTT4=(Miller]\n
EXTT5=(Unknown]\n
EXTT6=(Jeffe]\n
EXTT7=(Crawford]\n
EXTT8=(Jeffe]\n
EXTT9=(Sherril/Butler]\n
EXTT10=(Jeffe]\n
EXTT11=(Stewart]\n
EXTT12=(Paton/Owens]\n
EXTT13=(Gimbel/Altman/Stole/Del Roma]\n
PLAYORDER=
